<svg xmlns="http://www.w3.org/2000/svg" viewBox="0 0 512 512">
  <path fill="#fff" d="m241 416-13-9 2-4 2-2 11 7 13 8 13-8 11-7 2 2 2 3c0 2-26 19-28 19l-15-9zm-56-37-17-11 6-1h7l12 8 12 8c1 1-2 7-3 7l-17-11zm122 8-2-3 13-8 13-9h7l6 1-16 11-18 11-3-3zm-196-30c-9-3-15-9-19-18l-1-83v-78l2-6c3-7 9-13 15-16l6-2h285l5 2c6 3 12 9 15 16l3 6v157l-3 5c-3 7-8 12-14 15l-4 3H258l-147-1zm288-17 4-4c2-3 3-4 3-80s-1-77-3-80l-4-4c-3-2-3-2-143-2s-140 0-143 2c-5 4-6 6-7 17v10l5 1c7 3 12 6 14 10 2 2 2 5 2 46s0 44-2 46c-2 4-7 7-14 10l-5 1v9c0 9 1 12 4 16 5 5-2 5 147 5 139 0 139-1 142-3zm-173-31-34-19c-2-2-2-5-2-36 0-29 0-35 2-37 1-2 57-31 60-31s67 34 69 36l1 37c0 34 0 34-2 36-3 4-57 31-60 31l-34-17Zm28-26v-25l-14-7-25-13-11-6v51l24 12 25 12 1-24Zm121-16c-5-4-7-9-5-15s7-9 13-9c5 1 6 1 9 4s3 5 3 9 0 6-3 9-4 3-9 4c-4 0-5 0-8-2zM70 302a652 652 0 0 0-13-11c3-5 2-5 14 3l11 7v5l-1 4-11-8zm360 4c0-5 0-5 8-10 15-10 13-10 16-6l2 3-13 9-12 8-1-4ZM16 267c-17-11-17-11 1-22l13-9 3 3 2 3-11 7-10 7 11 7 10 7-2 3-3 3-14-9zm463 6-2-3 10-7 11-7-10-7-11-7 2-3 3-3 13 9c18 11 18 11 1 22l-14 9-3-3zM58 222l-2-3 13-9 12-8 1 4c0 5 0 5-8 10-15 10-13 10-16 6zm383-4-11-7v-5l1-4 25 17-4 6-11-7zm-272-74 33-22 3 3 2 3-13 8-13 9h-7c-3 0-6 0-5-1zm150-7-13-8 3-6a579 579 0 0 1 35 21l-7 1h-7l-11-8zm-89-28-2-4c0-1 26-18 28-18s28 17 28 19l-2 3-2 2-11-7-13-8-12 7-11 8-3-2z"/>
</svg>
