<svg xmlns="http://www.w3.org/2000/svg" viewBox="0 0 225 225">
  <path fill="#fff" d="M94 184c-17-3-40-13-46-20s-7-9-7-29l-1-18-9-4-9-4v30l5 13c7 15 8 19 4 24-3 5-6 6-12 6-7 0-10-2-13-7s-3-9 3-22l6-13v-35l-8-4c-7-4-9-5-5-8l109-60a2158 2158 0 0 1 113 64l-20 11-20 10v16c0 26-3 30-21 39-23 11-46 15-69 11zm44-9 21-8c10-5 12-6 14-10 3-4 3-4 4-20 0-15 0-16-2-15l-32 16-30 14-32-15-32-15v15c0 16 1 19 6 24 7 6 26 13 40 16 12 2 31 1 43-2zm-114-2c3-3 3-5-1-14l-4-9-4 8c-5 10-5 12-3 15 2 2 10 2 12 0zm139-53 50-24-3-2-96-53c-2-1-5 1-50 25L14 94l-2 2 4 2c4 1 4 1 40-3l37-5 2-4c4-15 27-17 34-2 4 8 1 18-6 23-3 3-4 3-11 3-6 0-8 0-10-2s-7-7-7-10l-62 8 18 8a1528 1528 0 0 1 61 30l51-24zm-45-18c7-4 7-13 2-18-5-4-11-4-15 0-5 4-4 5 3 5 6-1 7-1 7 1 2 3-1 5-7 6l-6 1 1 2c3 5 10 6 15 3z"/>
</svg>
