<svg xmlns="http://www.w3.org/2000/svg" viewBox="0 0 133 200">
  <path fill="none" stroke="#3f3f7b" stroke-linecap="round" stroke-width="5.5" d="M30 86a41 41 0 0 1-20-42 41 41 0 0 1 31-34 41 41 0 0 1 43 16 41 41 0 0 1 2 46"/>
  <path fill="none" stroke="#3f3f7b" stroke-linecap="round" stroke-width="5.5" d="M29 66a26 27 0 0 1 4-33 26 27 0 0 1 34-2 26 27 0 0 1 8 33"/>
  <path fill="#fff" d="M51 40c-7 0-13 6-13 14v54a2 2 0 0 1-4 2c-6-7-12-11-17-11-4 0-8 1-9 3-2 3-4 6-2 13a240 240 0 0 0 32 55c6 8 10 13 10 22l1 2 2 1h64l2-1 1-2c0-13 3-23 5-34 3-11 5-22 5-35v-16c0-8-5-14-13-14l-5 1a2 2 0 0 1-3-1c-2-6-7-10-13-10l-6 1a2 2 0 0 1-4 0c-2-4-6-7-11-7l-5 1a2 2 0 0 1-3-2V54c0-8-6-14-14-14zm0 6 6 2 2 6v50h5l1-2V91c0-2 0-4 2-6l5-2 6 2 2 6v16l1 2 2 1 2-1 1-2V96l2-5c1-2 3-3 6-3 2 0 4 1 5 3 2 1 2 3 2 5v16l1 2 2 1 2-1 1-2v-5l2-6 6-2 5 2 3 6v16c0 12-3 23-6 33-2 10-5 19-5 31a2 2 0 0 1-2 2H56a2 2 0 0 1-3-2c-1-8-5-14-11-20a290 290 0 0 1-30-54 2 2 0 0 1-1 0v-4l1-3 2-1 2-1 6 3 5 5c4 4 8 10 10 16a2 2 0 0 1 0 1v4l1 3h4l1-3V54l2-6 6-2Z"/>
</svg>
