<svg xmlns="http://www.w3.org/2000/svg" viewBox="0 0 225 225">
  <path fill="#fff" d="M55 186c-2 0-9-5-16-11-19-14-18-10-18-54l1-35 3-4c2-3 5-6 12-9 27-15 67-20 106-14 26 3 51 14 57 23l4 4v35c0 44 1 40-18 54l-16 11c-6 2-11 1-31-4l-26-5-27 5c-19 5-26 6-31 4zm-14-38 5-24 6-24c2-4 19-10 38-12 15-2 45-1 70 3 24 3 26 4 27 1 0-2-2-4-8-7-29-15-80-18-115-7-11 4-22 9-25 12l-2 3-1 27 1 28h4zM6 138c-4-1-4-3-4-23 0-21 0-22 6-22h3v23c0 25 0 24-5 22zm208-22V93h3c6 0 6 1 6 22l-1 21c-1 1-2 2-5 2h-3ZM85 43l1-4c2-2 51-2 53 0l1 4v4H85Z"/>
</svg>
